<?xml version="1.0" encoding="utf-8"?>
<!-- Generator: Adobe Illustrator 27.7.0, SVG Export Plug-In . SVG Version: 6.00 Build 0)  -->
<svg version="1.1" id="Ebene_1" xmlns="http://www.w3.org/2000/svg" xmlns:xlink="http://www.w3.org/1999/xlink" x="0px" y="0px"
	 viewBox="0 0 480 480" style="enable-background:new 0 0 480 480;" xml:space="preserve">
<style type="text/css">
	.st0{fill:#7900F9;}
	.st1{fill:url(#SVGID_1_);}
	.st2{fill:url(#SVGID_00000036251695511934537020000017943746842780797341_);}
	.st3{fill:url(#SVGID_00000125569147506522748850000009057097449136300468_);}
	.st4{fill:url(#SVGID_00000091711064435558948770000002281077144451665578_);}
	.st5{fill:url(#SVGID_00000141447904201343022090000003553879085854135956_);}
	.st6{fill:#F2F2F2;}
</style>
<circle id="Ebene_4_Kopie_2" class="st0" cx="240" cy="240" r="227.4"/>
<g id="Ebene_8_Kopie_2">
	
		<radialGradient id="SVGID_1_" cx="239.95" cy="-913.95" r="253.8168" gradientTransform="matrix(1 0 0 -1 0 -673.9)" gradientUnits="userSpaceOnUse">
		<stop  offset="0.664" style="stop-color:#F2F2F2;stop-opacity:0"/>
		<stop  offset="0.682" style="stop-color:#DEDEDE;stop-opacity:5.495459e-02"/>
		<stop  offset="0.75" style="stop-color:#9C9C9C;stop-opacity:0.255"/>
		<stop  offset="0.814" style="stop-color:#646464;stop-opacity:0.445"/>
		<stop  offset="0.872" style="stop-color:#393939;stop-opacity:0.6197"/>
		<stop  offset="0.925" style="stop-color:#1A1A1A;stop-opacity:0.7759"/>
		<stop  offset="0.969" style="stop-color:#070707;stop-opacity:0.9079"/>
		<stop  offset="1" style="stop-color:#000000"/>
	</radialGradient>
	<circle class="st1" cx="240" cy="240" r="227.4"/>
</g>
<g id="Ebene_10_Kopie_2">
	
		<radialGradient id="SVGID_00000141415464032463672120000013339073685275395244_" cx="239.95" cy="-913.95" r="251.2378" gradientTransform="matrix(1 0 0 -1 0 -673.9)" gradientUnits="userSpaceOnUse">
		<stop  offset="0.789" style="stop-color:#000000"/>
		<stop  offset="0.793" style="stop-color:#0F0F0F;stop-opacity:0.9809"/>
		<stop  offset="0.807" style="stop-color:#3E3E3E;stop-opacity:0.9158"/>
		<stop  offset="0.822" style="stop-color:#696969;stop-opacity:0.845"/>
		<stop  offset="0.838" style="stop-color:#8E8E8E;stop-opacity:0.77"/>
		<stop  offset="0.855" style="stop-color:#ADADAD;stop-opacity:0.6897"/>
		<stop  offset="0.873" style="stop-color:#C7C7C7;stop-opacity:0.6026"/>
		<stop  offset="0.893" style="stop-color:#DADADA;stop-opacity:0.5059"/>
		<stop  offset="0.917" style="stop-color:#E8E8E8;stop-opacity:0.3945"/>
		<stop  offset="0.946" style="stop-color:#F0F0F0;stop-opacity:0.2552"/>
		<stop  offset="1" style="stop-color:#F2F2F2;stop-opacity:0"/>
	</radialGradient>
	<circle style="fill:url(#SVGID_00000141415464032463672120000013339073685275395244_);" cx="240" cy="240" r="225.1"/>
</g>
<g id="Ebene_5_Kopie_Kopie_Kopie">
	
		<linearGradient id="SVGID_00000068672336056523182630000007654537443821415824_" gradientUnits="userSpaceOnUse" x1="81.6512" y1="-1128.7262" x2="408.6062" y2="-685.1212" gradientTransform="matrix(1 0 0 -1 0 -673.9)">
		<stop  offset="0" style="stop-color:#494F57"/>
		<stop  offset="0.27" style="stop-color:#444950"/>
		<stop  offset="0.647" style="stop-color:#34393E"/>
		<stop  offset="1" style="stop-color:#212427"/>
	</linearGradient>
	<path style="fill:url(#SVGID_00000068672336056523182630000007654537443821415824_);" d="M240,8.4C112.1,8.4,8.4,112.1,8.4,240
		S112.1,471.6,240,471.6S471.6,368,471.6,240S367.9,8.4,240,8.4z M240,465C115.7,465,14.9,364.3,14.9,239.9S115.7,14.8,240,14.8
		s225.1,100.8,225.1,225.1S364.4,465,240,465z"/>
</g>
<g id="Ebene_3_Kopie_Kopie_Kopie">
	
		<linearGradient id="SVGID_00000167395501784628427680000000255647286598210693_" gradientUnits="userSpaceOnUse" x1="374.699" y1="-771.948" x2="96.519" y2="-1064.8949" gradientTransform="matrix(1 0 0 -1 0 -673.9)">
		<stop  offset="0" style="stop-color:#67707A"/>
		<stop  offset="1" style="stop-color:#373A40"/>
	</linearGradient>
	<circle style="fill:url(#SVGID_00000167395501784628427680000000255647286598210693_);" cx="240" cy="239.9" r="204.2"/>
</g>
<g id="Ebene_2_Kopie_Kopie_Kopie">
	
		<linearGradient id="SVGID_00000018230665649790366780000001184805449960424594_" gradientUnits="userSpaceOnUse" x1="115.967" y1="-1044.4139" x2="371.903" y2="-774.893" gradientTransform="matrix(1 0 0 -1 0 -673.9)">
		<stop  offset="0" style="stop-color:#43484F"/>
		<stop  offset="1" style="stop-color:#212427"/>
	</linearGradient>
	<circle style="fill:url(#SVGID_00000018230665649790366780000001184805449960424594_);" cx="240" cy="239.9" r="187.8"/>
</g>
<g id="Ebene_9_Kopie_Kopie_Kopie">
	<path class="st6" d="M126.7,175.5v131.6l66.3-65.3L126.7,175.5z M239.9,264.6c8.8,0,17.1-3.4,23.3-9.7l88.3-88.3H128.2l88.3,88.3
		C222.8,261.2,231.1,264.6,239.9,264.6L239.9,264.6z M353.4,308.6V175.1l-66.2,66.2L353.4,308.6z"/>
	<path class="st6" d="M268.4,260.1c-7.6,7.6-17.7,11.8-28.5,11.8s-20.9-4.2-28.5-11.8L198.2,247L131,313.2h216.7L282,246.5
		L268.4,260.1L268.4,260.1z"/>
</g>
</svg>
