<?xml version="1.0" encoding="utf-8"?>
<!-- Generator: Adobe Illustrator 27.7.0, SVG Export Plug-In . SVG Version: 6.00 Build 0)  -->
<svg version="1.1" id="Ebene_1" xmlns="http://www.w3.org/2000/svg" xmlns:xlink="http://www.w3.org/1999/xlink" x="0px" y="0px"
	 viewBox="0 0 480 480" style="enable-background:new 0 0 480 480;" xml:space="preserve">
<style type="text/css">
	.st0{fill:#7900F9;}
	.st1{fill:url(#SVGID_1_);}
	.st2{fill:url(#SVGID_00000068641503642525164290000011404209097481407621_);}
	.st3{fill:url(#SVGID_00000070096155366160599460000004244065418728961177_);}
	.st4{fill:url(#SVGID_00000137849618489489090060000013405926027564349371_);}
	.st5{fill:url(#SVGID_00000039123064931461483510000011486589735857962660_);}
	.st6{fill:#494949;}
</style>
<circle id="Ebene_4_Kopie_2" class="st0" cx="240" cy="239.9" r="227.4"/>
<g id="Ebene_8_Kopie_2">
	
		<radialGradient id="SVGID_1_" cx="239.95" cy="1395.95" r="253.761" gradientTransform="matrix(1 0 0 1 0 -1156)" gradientUnits="userSpaceOnUse">
		<stop  offset="0.664" style="stop-color:#F2F2F2;stop-opacity:0"/>
		<stop  offset="0.682" style="stop-color:#DEDEDE;stop-opacity:5.495459e-02"/>
		<stop  offset="0.75" style="stop-color:#9C9C9C;stop-opacity:0.255"/>
		<stop  offset="0.814" style="stop-color:#646464;stop-opacity:0.445"/>
		<stop  offset="0.872" style="stop-color:#393939;stop-opacity:0.6197"/>
		<stop  offset="0.925" style="stop-color:#1A1A1A;stop-opacity:0.7759"/>
		<stop  offset="0.969" style="stop-color:#070707;stop-opacity:0.9079"/>
		<stop  offset="1" style="stop-color:#000000"/>
	</radialGradient>
	<circle class="st1" cx="240" cy="239.9" r="227.4"/>
</g>
<g id="Ebene_10_Kopie_2">
	
		<radialGradient id="SVGID_00000137814392933767090430000000000139321842278039_" cx="239.95" cy="1395.95" r="251.182" gradientTransform="matrix(1 0 0 1 0 -1156)" gradientUnits="userSpaceOnUse">
		<stop  offset="0.789" style="stop-color:#000000"/>
		<stop  offset="0.793" style="stop-color:#0F0F0F;stop-opacity:0.9809"/>
		<stop  offset="0.807" style="stop-color:#3E3E3E;stop-opacity:0.9158"/>
		<stop  offset="0.822" style="stop-color:#696969;stop-opacity:0.845"/>
		<stop  offset="0.838" style="stop-color:#8E8E8E;stop-opacity:0.77"/>
		<stop  offset="0.855" style="stop-color:#ADADAD;stop-opacity:0.6897"/>
		<stop  offset="0.873" style="stop-color:#C7C7C7;stop-opacity:0.6026"/>
		<stop  offset="0.893" style="stop-color:#DADADA;stop-opacity:0.5059"/>
		<stop  offset="0.917" style="stop-color:#E8E8E8;stop-opacity:0.3945"/>
		<stop  offset="0.946" style="stop-color:#F0F0F0;stop-opacity:0.2552"/>
		<stop  offset="1" style="stop-color:#F2F2F2;stop-opacity:0"/>
	</radialGradient>
	<circle style="fill:url(#SVGID_00000137814392933767090430000000000139321842278039_);" cx="240" cy="239.9" r="225.1"/>
</g>
<g id="Ebene_5_Kopie_2">
	
		<linearGradient id="SVGID_00000137820415712010233110000013045658977100124803_" gradientUnits="userSpaceOnUse" x1="-11.006" y1="1596.671" x2="485.108" y2="1200.064" gradientTransform="matrix(1 0 0 1 0 -1156)">
		<stop  offset="0" style="stop-color:#FFFFFF"/>
		<stop  offset="1" style="stop-color:#C1C7CC"/>
	</linearGradient>
	<path style="fill:url(#SVGID_00000137820415712010233110000013045658977100124803_);" d="M240,8.4C112.1,8.4,8.4,112.1,8.4,240
		S112.1,471.6,240,471.6S471.6,368,471.6,240S367.9,8.4,240,8.4z M240,465C115.7,465,14.9,364.3,14.9,239.9S115.7,14.8,240,14.8
		s225.1,100.8,225.1,225.1S364.4,465,240,465z"/>
</g>
<g id="Ebene_3_Kopie_2">
	
		<linearGradient id="SVGID_00000052102050510093540120000011204171986023527599_" gradientUnits="userSpaceOnUse" x1="374.699" y1="1254.048" x2="96.519" y2="1546.995" gradientTransform="matrix(1 0 0 1 0 -1156)">
		<stop  offset="0" style="stop-color:#FFFFFF"/>
		<stop  offset="0.13" style="stop-color:#E5E8EA"/>
		<stop  offset="0.241" style="stop-color:#D4D8DB"/>
		<stop  offset="0.379" style="stop-color:#D0D4D8"/>
		<stop  offset="1" style="stop-color:#C1C7CC"/>
	</linearGradient>
	<circle style="fill:url(#SVGID_00000052102050510093540120000011204171986023527599_);" cx="240" cy="239.9" r="204.2"/>
</g>
<g id="Ebene_2_Kopie_2">
	
		<linearGradient id="SVGID_00000026157331702377566670000013695884531866675107_" gradientUnits="userSpaceOnUse" x1="115.967" y1="1526.5139" x2="371.903" y2="1256.9929" gradientTransform="matrix(1 0 0 1 0 -1156)">
		<stop  offset="0" style="stop-color:#FFFFFF"/>
		<stop  offset="1" style="stop-color:#C1C7CC"/>
	</linearGradient>
	<circle style="fill:url(#SVGID_00000026157331702377566670000013695884531866675107_);" cx="240" cy="239.9" r="187.8"/>
</g>
<path class="st6" d="M126.7,175.5v131.6l66.3-65.3L126.7,175.5z M239.9,264.6c8.8,0,17.1-3.4,23.3-9.7l88.3-88.3H128.2l88.3,88.3
	C222.8,261.2,231.1,264.6,239.9,264.6L239.9,264.6z M353.4,308.6V175.1l-66.2,66.2L353.4,308.6z"/>
<path class="st6" d="M268.4,260.1c-7.6,7.6-17.7,11.8-28.5,11.8s-20.9-4.2-28.5-11.8L198.2,247L131,313.2h216.7L282,246.5
	L268.4,260.1L268.4,260.1z"/>
</svg>
