<?xml version="1.0" encoding="utf-8"?>
<!-- Generator: Adobe Illustrator 27.7.0, SVG Export Plug-In . SVG Version: 6.00 Build 0)  -->
<svg version="1.1" id="Ebene_1" xmlns="http://www.w3.org/2000/svg" xmlns:xlink="http://www.w3.org/1999/xlink" x="0px" y="0px"
	 viewBox="0 0 480 480" style="enable-background:new 0 0 480 480;" xml:space="preserve">
<style type="text/css">
	.st0{fill:#7900F9;}
	.st1{fill:url(#SVGID_1_);}
	.st2{fill:url(#SVGID_00000059307560210325321250000005022456456585764481_);}
	.st3{fill:url(#SVGID_00000065752748298511222140000009416302708610570173_);}
	.st4{fill:url(#SVGID_00000116223820225559754440000014638422954157294763_);}
	.st5{fill:url(#SVGID_00000142140870248892914880000011683278170930215825_);}
	.st6{fill:#F2F2F2;}
</style>
<circle id="Ebene_4_Kopie_2" class="st0" cx="240" cy="240" r="227.4"/>
<g id="Ebene_8_Kopie_2">
	
		<radialGradient id="SVGID_1_" cx="239.95" cy="-913.95" r="253.8168" gradientTransform="matrix(1 0 0 -1 0 -673.9)" gradientUnits="userSpaceOnUse">
		<stop  offset="0.664" style="stop-color:#F2F2F2;stop-opacity:0"/>
		<stop  offset="0.682" style="stop-color:#DEDEDE;stop-opacity:5.495459e-02"/>
		<stop  offset="0.75" style="stop-color:#9C9C9C;stop-opacity:0.255"/>
		<stop  offset="0.814" style="stop-color:#646464;stop-opacity:0.445"/>
		<stop  offset="0.872" style="stop-color:#393939;stop-opacity:0.6197"/>
		<stop  offset="0.925" style="stop-color:#1A1A1A;stop-opacity:0.7759"/>
		<stop  offset="0.969" style="stop-color:#070707;stop-opacity:0.9079"/>
		<stop  offset="1" style="stop-color:#000000"/>
	</radialGradient>
	<circle class="st1" cx="240" cy="240" r="227.4"/>
</g>
<g id="Ebene_10_Kopie_2">
	
		<radialGradient id="SVGID_00000065778477886309226270000000882083906715757454_" cx="239.95" cy="-913.95" r="251.2378" gradientTransform="matrix(1 0 0 -1 0 -673.9)" gradientUnits="userSpaceOnUse">
		<stop  offset="0.789" style="stop-color:#000000"/>
		<stop  offset="0.793" style="stop-color:#0F0F0F;stop-opacity:0.9809"/>
		<stop  offset="0.807" style="stop-color:#3E3E3E;stop-opacity:0.9158"/>
		<stop  offset="0.822" style="stop-color:#696969;stop-opacity:0.845"/>
		<stop  offset="0.838" style="stop-color:#8E8E8E;stop-opacity:0.77"/>
		<stop  offset="0.855" style="stop-color:#ADADAD;stop-opacity:0.6897"/>
		<stop  offset="0.873" style="stop-color:#C7C7C7;stop-opacity:0.6026"/>
		<stop  offset="0.893" style="stop-color:#DADADA;stop-opacity:0.5059"/>
		<stop  offset="0.917" style="stop-color:#E8E8E8;stop-opacity:0.3945"/>
		<stop  offset="0.946" style="stop-color:#F0F0F0;stop-opacity:0.2552"/>
		<stop  offset="1" style="stop-color:#F2F2F2;stop-opacity:0"/>
	</radialGradient>
	<circle style="fill:url(#SVGID_00000065778477886309226270000000882083906715757454_);" cx="240" cy="240" r="225.1"/>
</g>
<g id="Ebene_5_Kopie_Kopie_Kopie_Kopie_2">
	
		<linearGradient id="SVGID_00000154394871611607571830000002774112994214631559_" gradientUnits="userSpaceOnUse" x1="81.6512" y1="-1128.7262" x2="408.6062" y2="-685.1212" gradientTransform="matrix(1 0 0 -1 0 -673.9)">
		<stop  offset="0" style="stop-color:#494F57"/>
		<stop  offset="0.27" style="stop-color:#444950"/>
		<stop  offset="0.647" style="stop-color:#34393E"/>
		<stop  offset="1" style="stop-color:#212427"/>
	</linearGradient>
	<path style="fill:url(#SVGID_00000154394871611607571830000002774112994214631559_);" d="M240,8.4C112.1,8.4,8.4,112.1,8.4,240
		S112.1,471.6,240,471.6S471.6,368,471.6,240S367.9,8.4,240,8.4z M240,465C115.7,465,14.9,364.3,14.9,239.9S115.7,14.8,240,14.8
		s225.1,100.8,225.1,225.1S364.4,465,240,465z"/>
</g>
<g id="Ebene_3_Kopie_Kopie_Kopie_Kopie_2">
	
		<linearGradient id="SVGID_00000065043195421209691360000002915524003871013800_" gradientUnits="userSpaceOnUse" x1="374.699" y1="-771.948" x2="96.519" y2="-1064.8949" gradientTransform="matrix(1 0 0 -1 0 -673.9)">
		<stop  offset="0" style="stop-color:#67707A"/>
		<stop  offset="1" style="stop-color:#373A40"/>
	</linearGradient>
	<circle style="fill:url(#SVGID_00000065043195421209691360000002915524003871013800_);" cx="240" cy="239.9" r="204.2"/>
</g>
<g id="Ebene_2_Kopie_Kopie_Kopie_Kopie_2">
	
		<linearGradient id="SVGID_00000073698426718743512360000008382793678959518606_" gradientUnits="userSpaceOnUse" x1="115.967" y1="-1044.4139" x2="371.903" y2="-774.893" gradientTransform="matrix(1 0 0 -1 0 -673.9)">
		<stop  offset="0" style="stop-color:#43484F"/>
		<stop  offset="1" style="stop-color:#212427"/>
	</linearGradient>
	<circle style="fill:url(#SVGID_00000073698426718743512360000008382793678959518606_);" cx="240" cy="239.9" r="187.8"/>
</g>
<path class="st6" d="M189.7,198.9c3.8,3.8,10.3,13.2,13.5,18c0.4,0.5,1.1,0.5,1.5,0c3.6-5.4,8.3-10,13.9-13.3c0.5-0.3,0.6-1,0.2-1.4
	c-3.2-3.3-9.3-9.7-12.8-12.1c-6.2-4.2-10.3-4-21.3-8c-16.5-6-19.6-18.3-21.9-22.9c-0.2-0.4-0.9-0.3-0.9,0.2c-0.1,4,0.6,15,5,22.2
	C173.7,192.7,184.5,193.7,189.7,198.9L189.7,198.9z M197.7,249.6c0.6,0.1,1.2-0.4,1-1c-0.6-2.8-0.9-5.7-0.9-8.6
	c0-3.7,0.5-7.2,1.4-10.6c0.1-0.6-0.3-1.1-0.8-1.1c-4.6-0.1-13.5-0.3-17.6,0.5c-7.4,1.4-10.1,4.5-20.7,9.4
	c-15.9,7.5-26.8,0.9-31.7-0.7c-0.5-0.2-0.8,0.4-0.5,0.8c2.8,2.9,11,10.1,19.3,12.1c12.4,3,20.8-3.9,28.2-3.9
	C180.7,246.5,191.9,248.5,197.7,249.6L197.7,249.6z M216.9,275.2c-5.4-3.6-10-8.3-13.3-13.9c-0.3-0.5-1-0.6-1.4-0.2
	c-3.3,3.2-9.7,9.3-12.1,12.8c-4.2,6.2-4,10.3-8,21.3c-6,16.5-18.3,19.6-22.9,21.9c-0.4,0.2-0.3,0.9,0.2,0.9c4,0.1,15-0.6,22.2-5
	c10.9-6.6,12-17.5,17.2-22.7c3.8-3.8,13.2-10.3,18-13.5C217.5,276.3,217.5,275.6,216.9,275.2L216.9,275.2z M249.6,282.2
	c0.1-0.6-0.4-1.2-1-1c-2.8,0.6-5.7,0.9-8.6,0.9c-3.7,0-7.2-0.5-10.6-1.4c-0.6-0.1-1.1,0.3-1.1,0.8c-0.1,4.6-0.3,13.5,0.5,17.6
	c1.4,7.4,4.5,10.1,9.4,20.7c7.5,15.9,0.9,26.8-0.7,31.7c-0.2,0.5,0.4,0.8,0.8,0.5c2.9-2.8,10.1-11,12.1-19.3
	c3-12.4-3.9-20.8-3.9-28.2C246.5,299.2,248.5,288,249.6,282.2L249.6,282.2z M290.2,281c-3.8-3.8-10.3-13.2-13.5-18
	c-0.4-0.5-1.1-0.5-1.5,0c-3.6,5.4-8.3,10-13.9,13.3c-0.5,0.3-0.6,1-0.2,1.4c3.2,3.3,9.3,9.7,12.8,12.1c6.2,4.2,10.3,4,21.3,8
	c16.5,6,19.6,18.3,21.9,22.9c0.2,0.4,0.9,0.3,0.9-0.2c0.1-4-0.6-15-5-22.2C306.3,287.3,295.5,286.3,290.2,281L290.2,281z
	 M352.1,241.8c-2.8-2.9-11-10.1-19.3-12.1c-12.4-3-20.8,3.9-28.2,3.9c-5.4,0-16.6-2-22.3-3.2c-0.6-0.1-1.2,0.4-1,1
	c0.6,2.8,0.9,5.7,0.9,8.6c0,3.7-0.5,7.2-1.4,10.6c-0.1,0.6,0.3,1.1,0.8,1.1c4.6,0.1,13.5,0.3,17.6-0.5c7.4-1.4,10.1-4.5,20.7-9.4
	c15.9-7.5,26.8-0.9,31.7,0.7C352.1,242.7,352.5,242.1,352.1,241.8L352.1,241.8z M263.1,204.8c5.4,3.6,10,8.3,13.3,13.9
	c0.3,0.5,1,0.6,1.4,0.2c3.3-3.2,9.7-9.3,12.1-12.8c4.2-6.2,4-10.3,8-21.3c6-16.5,18.3-19.6,22.9-21.9c0.4-0.2,0.3-0.9-0.2-0.9
	c-4-0.1-15,0.6-22.2,5c-10.9,6.6-12,17.5-17.2,22.7c-3.8,3.8-13.2,10.3-18,13.5C262.5,203.6,262.5,204.4,263.1,204.8L263.1,204.8z
	 M230.4,197.6c-0.1,0.6,0.4,1.2,1,1c2.8-0.6,5.7-0.9,8.6-0.9c3.7,0,7.2,0.5,10.6,1.4c0.6,0.1,1.1-0.3,1.1-0.8
	c0.1-4.6,0.3-13.5-0.5-17.6c-1.4-7.4-4.5-10.1-9.4-20.7c-7.5-15.9-0.9-26.8,0.7-31.7c0.2-0.5-0.4-0.8-0.8-0.5
	c-2.9,2.8-10.1,11-12.1,19.3c-3,12.4,3.9,20.8,3.9,28.2C233.5,180.7,231.5,191.9,230.4,197.6L230.4,197.6z M240.2,204.5
	c-19.4,0-35.1,15.7-35.1,35.1s15.7,35.1,35.1,35.1s35.1-15.7,35.1-35.1S259.6,204.5,240.2,204.5z M240.2,265.5
	c-14.3,0-25.9-11.6-25.9-25.9s11.6-25.9,25.9-25.9s25.9,11.6,25.9,25.9S254.5,265.5,240.2,265.5z"/>
</svg>
