<?xml version="1.0" encoding="utf-8"?>
<!-- Generator: Adobe Illustrator 27.7.0, SVG Export Plug-In . SVG Version: 6.00 Build 0)  -->
<svg version="1.1" id="Ebene_1" xmlns="http://www.w3.org/2000/svg" xmlns:xlink="http://www.w3.org/1999/xlink" x="0px" y="0px"
	 viewBox="0 0 470 470" style="enable-background:new 0 0 470 470;" xml:space="preserve">
<style type="text/css">
	.st0{fill:#A99E90;}
</style>
<path class="st0" d="M235,9.9C110.7,9.9,9.9,110.7,9.9,235.1s100.8,225,225.1,225S460.1,359.3,460.1,235S359.4,9.9,235,9.9z
	 M409.1,268.9c-1.4,1.2-3,2-4.8,1.8c-24.8-4.5-48.9,0.4-72.5,6c-12.2,2.8-23.7,9.2-34.9,15.3c-12.4,6.8-25.3,11-39.1,13.3
	c-4.4,0.8-8.2,3-12.8,4.6c0.4,13.8-10.2,22.3-15.8,34.3c4.6,1.4,11.9,5.2,9.4,7.2c-1,0.8-2.2-1-2.2-1c-13.7-5.8-27,1.2-47.3-1.8
	c4.4-1.2-13.7,2.7-9.6,1.2c0-0.4,2.2-1.6,1.6-2.7c-2,0-5.6,1.2-9.2,1.4c-0.4,0-0.4-0.4-0.2-0.6l6.4-5.2c0.6-0.4,1-0.6,1.6-0.6
	c7.8,0.8,18.2,1,24.8,1.8c2.4-2-1.4-5,0.6-6.6c1.8,0.4,5.4,2.4,8.1,2.8l8.1-14.4c-7.6-10.8-16.4-18.2-28.3-23.4
	c-13.1-6-25.7-14-37.1-23c-11.9-9.4-17.1-23.6-20.1-37.9c-5-23.2-7.2-46.6-6.8-70.4c0-5.8,0-11.4-4.8-15.6c-6.8-3.4-15.3,2-20.9,5.8
	c-3-4.4,1-9.4,3-12.2c5.2-7.4,10.4-14.6,15.5-21.9c6.6-9.4,20.9-12,29.9-4.4c6,4.8,10.8,11.4,14.9,17.8c3.2,4.8,5,11,6.6,16.7
	c6,22.5,22.3,34.9,42.1,43.5c15.5,6.8,31.1,12.8,46.6,19.4c12.6,5.4,25.5,8.1,39.3,8.8c12.2,0.8,24.7,1.4,36.9,1.4
	c10.1,0,20.1-1,30.3-1.6c7.4-0.6,16,0.9,21.1,7c0.4,0.4,0.6,0.9,0.4,1.4c-1.2,5.4-9.4,5.8-13.1,8.8c-0.6,0.6-0.9,1.2-0.8,2
	c0.6,2.2,1,4.5,1.6,7c0.2,0.9,0.9,1.6,1.8,1.8c11.9,2.2,23.6-2.4,37.5,9C415.2,270.7,410.2,267.8,409.1,268.9L409.1,268.9z"/>
</svg>
