<svg xmlns="http://www.w3.org/2000/svg" viewBox="0 0 1920 1080"><defs><style>.cls-1,.cls-2{fill:none;stroke:#998870}.cls-1{stroke-miterlimit:10}.cls-2{stroke-linecap:round;stroke-linejoin:round}</style></defs><g id="Gons"><path class="cls-1" d="M1170.99 174.56H749.01L538.03 540l210.98 365.44h421.98L1381.97 540l-210.98-365.44z"/><path class="cls-1" d="M594.56 329.01v421.98L960 961.97l365.44-210.98V329.01L960 118.03 594.56 329.01zM1476.2 221.94v86.33l74.76 43.16 74.75-43.16v-86.33l-74.75-43.16-74.76 43.16zM1731.89 637.82h-107.75l-53.87 93.31 53.87 93.31h107.75l53.87-93.31-53.87-93.31z"/><path class="cls-1" d="M1584.64 677.26V785l93.31 53.88 93.31-53.88V677.26l-93.31-53.87-93.31 53.87z"/><path class="cls-1" transform="rotate(45 1678.014 731.136)" d="M1661.52 714.63h33v33h-33z"/><path class="cls-1" d="m1482.94 815.83-21.55 40.75 32.1 33.09 41.39-20.31-6.53-45.63-45.41-7.9z"/><path class="cls-1" d="m1513.06 814.06-44.05 13.58-.7 46.09 43.62 14.9 27.66-36.88-26.53-37.69z"/><path class="cls-1" d="m1500.52 838.6-11.74 8.53 4.48 13.8h14.51l4.48-13.8-11.73-8.53zM172.38 959.93v34.74l30.09 17.37 30.09-17.37v-34.74l-30.09-17.38-30.09 17.38z"/><path class="cls-1" d="M214.76 956.01h-24.58l-12.29 21.29 12.29 21.29h24.58l12.29-21.29-12.29-21.29z"/></g><g id="LineCircles"><path class="cls-1" d="m1375.86 257.66 8.97.32M1376.71 245.56l8.92.94M1378.4 233.55l8.83 1.55M1380.92 221.68l8.7 2.17M1384.26 210.02l8.53 2.77M1388.41 198.62l8.32 3.36M1393.35 187.53l8.06 3.94M1399.04 176.82l7.77 4.49M1405.47 166.53l7.44 5.02M1412.6 156.72l7.07 5.52M1420.4 147.42l6.67 6.01M1428.83 138.7l6.23 6.45M1437.85 130.58l5.76 6.87M1447.41 123.11l5.27 7.26M1457.46 116.32l4.76 7.61M1467.97 110.26l4.21 7.92M1478.88 104.94l3.64 8.19M1490.12 100.4l3.07 8.42M1501.66 96.65l2.48 8.62M1513.43 93.71l1.87 8.77M1525.38 91.6l1.25 8.89M1537.45 90.34l.62 8.94M1549.57 89.91v8.97M1561.7 90.34l-.63 8.94M1573.76 91.6l-1.24 8.89M1585.71 93.71l-1.86 8.77M1597.48 96.65l-2.47 8.62M1609.02 100.4l-3.07 8.42M1620.27 104.94l-3.65 8.19M1631.18 110.26l-4.22 7.92M1641.68 116.32l-4.75 7.61M1651.74 123.11l-5.27 7.26M1661.3 130.58l-5.76 6.87M1670.32 138.7l-6.23 6.45M1678.74 147.42l-6.66 6.01M1686.54 156.72l-7.06 5.52M1693.67 166.53l-7.43 5.02M1700.1 176.82l-7.76 4.49M1705.8 187.53l-8.06 3.94M1710.73 198.62l-8.31 3.36M1714.88 210.02l-8.53 2.77M1718.23 221.68l-8.71 2.17M1720.75 233.55l-8.83 1.55M1722.44 245.56l-8.92.94M1723.29 257.66l-8.97.32M1723.29 269.8l-8.97-.32M1722.44 281.9l-8.92-.94M1720.75 293.91l-8.83-1.55M1718.23 305.78l-8.71-2.17M1714.88 317.44l-8.53-2.77M1710.73 328.84l-8.31-3.36M1705.8 339.93l-8.06-3.93M1700.1 350.64l-7.76-4.49M1693.67 360.93l-7.43-5.02M1686.54 370.74l-7.06-5.52M1678.74 380.04l-6.66-6M1670.32 388.76l-6.23-6.45M1661.3 396.88l-5.76-6.87M1651.74 404.35l-5.27-7.25M1641.68 411.14l-4.75-7.61M1631.18 417.2l-4.22-7.92M1620.27 422.52l-3.65-8.19M1609.02 427.07l-3.07-8.43M1597.48 430.81l-2.47-8.62M1585.71 433.75l-1.86-8.77M1573.76 435.86l-1.24-8.89M1561.7 437.12l-.63-8.94M1549.57 437.55v-8.97M1537.45 437.12l.62-8.94M1525.38 435.86l1.25-8.89M1513.43 433.75l1.87-8.77M1501.66 430.81l2.48-8.62M1490.12 427.07l3.07-8.43M1478.88 422.52l3.64-8.19M1467.97 417.2l4.21-7.92M1457.46 411.14l4.76-7.61M1447.41 404.35l5.27-7.25M1437.85 396.88l5.76-6.87M1428.83 388.76l6.23-6.45M1420.4 380.04l6.67-6M1412.6 370.74l7.07-5.52M1405.47 360.93l7.44-5.02M1399.04 350.64l7.77-4.49M1393.35 339.93l8.06-3.93M1388.41 328.84l8.32-3.36M1384.26 317.44l8.53-2.77M1380.92 305.78l8.7-2.17M1378.4 293.91l8.83-1.55M1376.71 281.9l8.92-.94M1375.86 269.8l8.97-.32M220.88 805.83l3.18-30.23M238.7 808.65l6.32-29.73M256.14 813.32l9.39-28.91M272.98 819.79l12.37-27.77M289.06 827.98l15.2-26.32M304.2 837.81l17.87-24.59M318.22 849.17l20.34-22.59M330.99 861.93l22.58-20.34M342.34 875.95l24.59-17.86M352.17 891.09l26.33-15.2M360.36 907.17l27.77-12.37M366.83 924.02l28.91-9.4M371.5 941.45l29.73-6.32M374.33 959.27l30.23-3.18M375.27 977.29h30.4M374.33 995.32l30.23 3.17M371.5 1013.14l29.73 6.32M63.37 875.95l-24.59-17.86M74.73 861.93l-22.59-20.34M87.49 849.17l-20.34-22.59M101.52 837.81l-17.87-24.59M116.65 827.98l-15.2-26.32M132.73 819.79l-12.36-27.77M149.58 813.32l-9.39-28.91M167.01 808.65l-6.32-29.73M184.84 805.83l-3.18-30.23M202.86 804.88v-30.4M51.57 971.99l7.81.28M52.31 961.45l7.77.82M53.78 950.99l7.69 1.36M55.98 940.66l7.58 1.88M58.89 930.5l7.43 2.41M62.5 920.57l7.25 2.93M66.8 910.92l7.02 3.42M71.76 901.59l6.77 3.9M77.36 892.63l6.48 4.37M83.57 884.08l6.16 4.81M90.36 875.99l5.81 5.22M97.7 868.39l5.43 5.61M105.56 861.32l5.02 5.98M113.88 854.81l4.59 6.32M122.64 848.9l4.14 6.63M131.79 843.62l3.67 6.9M141.29 838.99l3.17 7.13M151.08 835.03l2.68 7.34M161.13 831.76l2.16 7.51M171.39 829.21l1.62 7.64M181.79 827.37l1.09 7.74M192.3 826.27l.54 7.79M202.86 825.9v7.81M213.42 826.27l-.55 7.79M223.93 827.37l-1.09 7.74M234.33 829.21l-1.62 7.64M244.58 831.76l-2.15 7.51M254.63 835.03l-2.67 7.34M264.43 838.99l-3.18 7.13M273.92 843.62l-3.66 6.9M283.08 848.9l-4.14 6.63M291.83 854.81l-4.59 6.32M300.16 861.32l-5.02 5.98M308.01 868.39l-5.42 5.61M315.35 875.99l-5.8 5.22M322.14 884.08l-6.15 4.81M328.35 892.63l-6.47 4.37M333.95 901.59l-6.76 3.9M338.91 910.92l-7.02 3.42M343.21 920.57l-7.24 2.93M346.83 930.5l-7.43 2.41M349.74 940.66l-7.58 1.88M351.93 950.99l-7.69 1.36M353.41 961.45l-7.77.82M354.14 971.99l-7.8.28M354.14 982.56l-7.8-.27M353.41 993.1l-7.77-.82M351.93 1003.56l-7.69-1.35M349.74 1013.9l-7.58-1.89M346.83 1024.05l-7.43-2.41M343.21 1033.98l-7.24-2.92M62.5 1033.98l7.25-2.92M58.89 1024.05l7.43-2.41M55.98 1013.9l7.58-1.89M53.78 1003.56l7.69-1.35M52.31 993.1l7.77-.82M51.57 982.56l7.81-.27M1624.4 841.39l-14.74 30.56M1576.46 799.81l-28.05 19.1M1555.73 739.83l-33.85 2.51M1567.76 677.52l-30.57-14.75M1609.34 629.58l-19.1-28.06M1669.32 608.84 1666.8 575M1731.63 620.88l14.74-30.57M1779.57 662.45l28.06-19.09M1800.31 722.43l33.84-2.51M1788.27 784.74l30.57 14.75M1746.69 832.69l19.1 28.05M1686.71 853.42l2.52 33.85M1665.35 853.07l-.9 10.26M1654.77 851.51l-1.79 10.14M1644.36 849.02l-2.66 9.95M1634.22 845.64l-3.52 9.68M1615 836.3l-5.15 8.91M1606.07 830.4l-5.9 8.44M1597.69 823.75l-6.61 7.89M1589.93 816.4l-7.28 7.28M1582.83 808.4l-7.89 6.62M1570.86 790.7l-8.92 5.15M1566.08 781.13l-9.34 4.35M1562.14 771.19l-9.67 3.52M1559.09 760.93l-9.94 2.67M1556.95 750.46l-10.14 1.78M1555.43 729.14h-10.29M1556.07 718.46l-10.26-.89M1557.64 707.88l-10.14-1.78M1560.13 697.48l-9.95-2.66M1563.51 687.33l-9.68-3.52M1572.85 668.12l-8.92-5.15M1578.75 659.19l-8.44-5.91M1585.39 650.81l-7.89-6.62M1592.75 643.04l-7.29-7.28M1600.75 635.95l-6.62-7.89M1618.45 623.98l-5.15-8.92M1628.02 619.19l-4.36-9.33M1637.96 615.26l-3.52-9.68M1648.21 612.21l-2.66-9.95M1658.69 610.07l-1.79-10.15M1680.01 608.55v-10.3M1690.69 609.19l.89-10.26M1701.27 610.76l1.78-10.14M1711.67 613.24l2.66-9.94M1721.81 616.62l3.53-9.67M1741.03 625.97l5.15-8.92M1749.96 631.86l5.91-8.43M1758.34 638.51l6.62-7.89M1766.1 645.86l7.29-7.28M1773.2 653.87l7.89-6.62M1785.17 671.57l8.92-5.15M1789.96 681.13l9.33-4.35M1793.89 691.08l9.67-3.52M1796.94 701.33l9.94-2.66M1799.08 711.81l10.14-1.79M1800.6 733.13h10.3M1799.96 743.8l10.26.9M1798.39 754.38l10.14 1.79M1795.91 764.78l9.94 2.67M1792.52 774.93l9.68 3.52M1783.18 794.15l8.92 5.15M1777.29 803.08l8.43 5.9M1770.64 811.45l7.89 6.62M1763.29 819.22l7.28 7.28M1755.28 826.32l6.62 7.89M1737.58 838.29l5.15 8.92M1728.02 843.07l4.35 9.34M1718.07 847l3.52 9.68M1707.82 850.05l2.66 9.95M1697.34 852.2l1.79 10.14M1676.02 853.71v10.3"/><g><path class="cls-1" d="m896.26 716.51-17.5 48.91M816.54 660.99l-39.61 33.61M775.27 573.05l-51.11 9.31M783.49 476.26l-48.91-17.5M839.01 396.54l-33.61-39.61M926.95 355.27l-9.31-51.11M1023.74 363.49l17.5-48.91M1103.46 419.01l39.61-33.61M1144.73 506.95l51.11-9.31M1136.51 603.74l48.91 17.5M1080.99 683.46l33.61 39.61M993.05 724.73l9.31 51.11M960.47 727.66l.29 15.77M927.87 724.89l-2.44 15.58M866.57 702.76l-7.62 13.79M839.73 684.06l-9.9 12.26M797.71 634.24l-13.5 8.13M783.81 604.63l-14.71 5.66M772.34 540.47l-15.77.29M775.11 507.87l-15.58-2.44M797.24 446.57l-13.79-7.62M815.94 419.73l-12.26-9.9M865.76 377.71l-8.13-13.5M895.37 363.81l-5.66-14.71M959.53 352.34l-.29-15.77M992.13 355.11l2.44-15.58M1053.43 377.24l7.62-13.79M1080.27 395.94l9.9-12.26M1122.29 445.76l13.5-8.13M1136.19 475.37l14.71-5.66M1147.66 539.53l15.77-.29M1144.89 572.13l15.58 2.44M1122.76 633.43l13.79 7.62M1104.06 660.27l12.26 9.9M1054.24 702.29l8.13 13.5M1024.63 716.19l5.66 14.71"/></g><g><path class="cls-1" d="m354.94 71.81-17.71-10.22M340.29 95.25l-16.95-11.43M324.04 117.62l-16.11-12.58M306.26 138.8l-15.18-13.68M287.06 158.68l-14.2-14.7M266.52 177.18l-13.14-15.65M244.73 194.2l-12.01-16.53M221.81 209.66l-10.83-17.33M197.87 223.49l-9.6-18.05M173.02 235.61l-8.31-18.68M147.39 245.96l-6.99-19.2M121.09 254.5l-5.63-19.64M94.27 261.19l-4.25-19.99M67.04 265.99l-2.84-20.24M39.55 268.88l-1.43-20.39"/></g></g><g id="Grid"><path class="cls-1" d="m300.04 48.34.46 990.66M564.14 39.79v1000.12M1357.32 39.79v1000.12M1621.92 309.9v720.96M1621.92 47.34v172.04M1875.44 788.68H35.78M1475.87 289.91H46.34M1875.44 289.91h-249.75"/></g><g id="Strahlen"><path class="cls-1" d="M1730.67 179.84 1625.44 229M916.91 40.72l29.37 335.86M1004.18 40.72l-29.39 335.95M1094.22 40.72l-91.37 340.95M1193.18 40.72 1029.6 391.47M1309.86 40.72l-255.63 365.05M1459.42 40.72l-383.4 383.37M1652.1 55.36 1094.32 445.9M1108.53 470.41l367.59-171.8M1876.45 293.84l-758.09 203.4M1123.34 525.33l685.88-59.98M1886.64 620.62l-763.23-66.8M1118.58 581.92l450.14 120.64M1797.36 929.82l-688.42-321.11M1094.72 633.53l556.23 389.51M1459.35 1038.42l-382.91-382.94M1309.81 1038.42l-255.18-364.46M1193.13 1038.42l-163.21-350.04M1094.19 1038.42l-91.13-340.14M1004.16 1038.42l-29.3-335.1M946.2 703.42l-29.32 335M917.93 698.54l-91.08 339.88M890.95 688.79 727.9 1038.42M866.1 674.46l-254.84 364.07M844.1 656.03l-382.24 382.39M825.63 634.03l-577.96 404.66M811.27 609.17 188.85 899.38M801.49 582.18 45.35 784.76M79.47 616.62l717.12-62.71M796.67 525.23 34.44 458.51M801.71 497 138.18 319.19M811.61 470.11l-688.98-321.3M826.04 445.38 269.78 55.85M460.8 39.79l383.73 383.76M611.27 40.72 866.5 405.26M727.94 40.72l163.35 350.34M826.89 40.72l91.27 340.67"/></g><g id="Circles"><path class="cls-1" d="M385.54 40.73C324.56 176.98 191.23 273.79 34.41 282.28"/><path class="cls-1" d="M331.81 40.73C274.84 149.66 163.87 225.87 34.43 233.84M548.8 40.72C479.82 262.77 276.88 425.84 34.49 435.41M494.52 1038.42c4.11-19.73 6.27-40.17 6.27-61.12 0-164.76-133.56-298.32-298.32-298.32-62.4 0-120.33 19.16-168.22 51.92"/><path class="cls-1" d="M468.33 1038.42c4.5-19.65 6.88-40.11 6.88-61.12 0-150.63-122.11-272.74-272.74-272.74-63.46 0-121.85 21.67-168.19 58.01"/><circle class="cls-1" cx="960.54" cy="539.57" r="421.64"/><circle class="cls-1" cx="960.54" cy="539.57" r="279.73"/><circle class="cls-1" cx="1551.01" cy="265.1" r="74.7"/><circle class="cls-1" cx="1551.86" cy="265.17" r="134.76"/><circle class="cls-1" cx="1500.23" cy="851.75" r="40.25"/><circle class="cls-1" cx="1678.02" cy="731.13" r="107.66"/></g><g id="Frame"><path class="cls-1" d="M34.44 40.72h1852.2v997.7H34.44z"/><path class="cls-1" d="M1886.64 702.56c-.39 184.48-149.18 334.09-333.34 335.86M1550.24 40.72c194.05-.12 336.01 149.89 336.4 335.38M34.49 377.29c0-185.33 146.03-335.55 335.02-336.57"/></g><g id="FrameLines"><path class="cls-1" d="M49.9 275.78v.24M49.9 40.16v235.62M65.34 40.16V235.1M80.62 40.16v165.42M95.9 40.16v141.6M111.18 40.16v121.55M125.46 40.16V145.5M140.74 40.16v90.15M156.02 40.16v76.77M170.8 40.16v64.8M186.08 40.16v54.29M201.36 40.16v44.98M215.64 40.16v36.76M230.92 40.16v29.47M245.7 40.16v23.31M259.97 40.16v18.12M274.75 40.16v13.51M290.03 40.16v9M304.31 40.16v5.93M321.1 40.16v3.12"/><g><path class="cls-1" d="M1872.48 799.81v-.24M1872.48 1037.75V799.81M1857.04 1037.75V840.89M1841.75 1037.75V870.7M1826.47 1037.75v-143M1811.19 1037.75V915M1796.92 1037.75V931.37M1781.64 1037.75v-91.04M1766.35 1037.75v-77.53M1751.58 1037.75v-65.44M1736.29 1037.75v-54.83M1721.01 1037.75v-45.42M1706.74 1037.75v-37.12M1691.46 1037.75v-29.77M1676.68 1037.75v-23.54M1662.4 1037.75v-18.3M1647.62 1037.75v-13.64M1632.34 1037.75v-9.09M1618.07 1037.75v-5.99M1601.28 1037.75v-3.15"/></g><g><path class="cls-1" d="M1872.48 275.78v.24M1872.48 40.82v234.96M1857.04 40.82v194.39M1841.75 40.82v164.96M1826.47 40.82v141.2M1811.19 40.82v121.21M1796.92 40.82v105.05M1781.64 40.82v89.89M1766.35 40.82v76.55M1751.58 40.82v64.62M1736.29 40.82v54.13M1721.01 40.82v44.85M1706.74 40.82v36.65M1691.46 40.82v29.39M1676.68 40.82v23.24M1662.4 40.82v18.07M1647.62 40.82v13.47M1632.34 40.82v8.97M1618.07 40.82v5.91M1601.28 40.82v3.11"/></g></g><g id="Ebene_15" data-name="Ebene 15"><circle class="cls-2" cx="960" cy="540" r="164.46"/><path class="cls-2" d="M1041.35 397.31H876.89l-82.23 142.42 82.23 142.43h164.46l82.23-142.43-82.23-142.42z"/><path class="cls-2" d="M816.69 457.5v164.47l142.43 82.23 142.43-82.23V457.5l-142.43-82.23-142.43 82.23z"/><circle class="cls-2" cx="959.12" cy="539.73" r="99.83"/><circle class="cls-2" cx="959.12" cy="539.73" r="91.96"/></g><g id="Ebene_18" data-name="Ebene 18"><path class="cls-1" d="M1074.89 422.33c29.73-29.53 48.15-70.44 48.15-115.65 0-90.02-72.98-163-163-163s-163 72.98-163 163c0 45.2 18.4 86.1 48.12 115.62M844.82 657.38c-29.52 29.5-47.79 70.27-47.79 115.3 0 90.02 72.98 163 163 163s163-72.98 163-163c0-45.05-18.28-85.83-47.82-115.33M1078.19 654.34c29.54 29.84 70.53 48.33 115.84 48.33 90.02 0 163-72.98 163-163s-72.98-163-163-163c-45.47 0-86.59 18.63-116.15 48.66M842.65 424.79c-29.53-29.71-70.42-48.11-115.62-48.11-90.02 0-163 72.98-163 163s72.98 163 163 163c45.04 0 85.8-18.26 115.31-47.79M1092.89 636.89v403.02M1092.89 39.79v403.32M828.24 441.6V39.79M828.24 638.4v401.51"/></g></svg>